<svg width="342" height="312" viewBox="0 0 342 312" fill="none" xmlns="http://www.w3.org/2000/svg">
<path opacity="0.9" d="M212.567 52.23C156.137 56.44 131.847 18.33 75.9268 22.62C26.0168 26.44 -8.69316 53.51 2.50684 90.62C12.4368 123.62 61.5068 134.49 78.6568 165.48C96.8168 198.33 110.787 233.69 166.657 245.71C276.377 269.33 331.047 165.26 339.257 105.21C342.397 82.21 348.077 27.03 309.207 19.42C270.107 11.8 247.177 49.65 212.567 52.23Z" fill="url(#paint0_linear)"/>
<path d="M157.557 298.27L165.237 296.46L160.987 278.02L153.317 279.83L157.557 298.27Z" fill="#B55B52"/>
<path d="M98.6369 303.04H106.657L107.607 284.45H99.5769L98.6369 303.04Z" fill="#B55B52"/>
<path d="M107.977 302.11H98.187C98.028 302.111 97.8741 302.166 97.7505 302.266C97.6269 302.366 97.541 302.505 97.507 302.66L95.907 309.8C95.8708 309.974 95.8744 310.153 95.9172 310.326C95.9601 310.498 96.0413 310.658 96.1547 310.794C96.2681 310.931 96.4108 311.04 96.5722 311.114C96.7336 311.187 96.9096 311.224 97.087 311.22C100.227 311.17 102.527 310.98 106.497 310.98C108.937 310.98 114.297 311.24 117.667 311.24C121.037 311.24 121.477 307.91 120.097 307.6C113.917 306.25 111.247 304.39 109.267 302.6C108.909 302.289 108.451 302.115 107.977 302.11Z" fill="#263238"/>
<path d="M165.597 295.52L157.057 297.52C156.903 297.558 156.766 297.647 156.668 297.772C156.57 297.897 156.517 298.051 156.517 298.21L156.597 305.52C156.598 305.697 156.639 305.871 156.717 306.03C156.795 306.189 156.908 306.328 157.048 306.437C157.187 306.546 157.35 306.621 157.523 306.658C157.696 306.695 157.875 306.692 158.047 306.65C161.117 305.88 165.527 304.65 169.397 303.75C173.917 302.7 174.007 302.87 179.317 301.63C182.527 300.88 182.657 297.43 181.247 297.45C174.817 297.54 173.667 297.72 167.617 295.7C166.974 295.451 166.274 295.389 165.597 295.52V295.52Z" fill="#263238"/>
<path d="M124.257 55.72C127.897 60.63 131.327 65.57 134.647 70.66C136.307 73.21 137.947 75.77 139.517 78.38C141.087 80.99 142.667 83.63 144.147 86.38L144.707 87.38L144.987 87.89L145.417 88.75C145.78 89.5301 146.042 90.3534 146.197 91.2C146.437 92.508 146.33 93.8561 145.887 95.11C145.389 96.4474 144.505 97.6066 143.347 98.44C142.594 98.9863 141.756 99.4052 140.867 99.68L133.337 90.13C130.537 85.89 127.607 81.66 124.637 77.44L114.407 62.87L124.257 55.72Z" fill="#B65B52"/>
<path opacity="0.2" d="M160.987 278.02L163.177 287.53L155.497 289.34L153.307 279.84L160.987 278.02Z" fill="black"/>
<path d="M109.187 57.46C107.007 64.82 119.897 78.9299 119.897 78.9299L135.497 68.9999C132.688 64.3558 129.602 59.8844 126.257 55.6099C119.667 47.0499 111.827 48.55 109.187 57.46Z" fill="url(#paint1_linear)"/>
<path opacity="0.2" d="M99.5769 284.46H107.607L107.117 294.04H99.0869L99.5769 284.46Z" fill="black"/>
<path d="M76.4069 60.26C85.8169 88.87 86.6269 118.62 87.5769 124.84C93.8369 124.18 117.407 121.64 130.257 120.25C133.657 82.35 124.117 59.16 120.707 52.25C120.376 51.5758 119.876 50.9992 119.256 50.5767C118.635 50.1542 117.915 49.9003 117.167 49.84C116.057 49.75 114.617 49.66 112.997 49.61C111.817 49.61 110.547 49.55 109.227 49.61C108.497 49.61 107.757 49.61 107.007 49.69C100.929 50.2038 94.8853 51.0686 88.9069 52.28C87.7769 52.5 86.6269 52.75 85.5269 53.01C84.4269 53.27 83.5269 53.52 82.5269 53.78C81.3369 54.11 80.2069 54.44 79.2169 54.78C78.6715 54.9536 78.1657 55.2334 77.7289 55.6033C77.292 55.9732 76.9327 56.4259 76.6715 56.9352C76.4103 57.4446 76.2525 58.0006 76.2071 58.5712C76.1617 59.1418 76.2296 59.7157 76.4069 60.26Z" fill="#FFB86C"/>
<path opacity="0.3" d="M76.4069 60.26C85.8169 88.87 86.6269 118.62 87.5769 124.84C93.8369 124.18 117.407 121.64 130.257 120.25C133.657 82.35 124.117 59.16 120.707 52.25C120.376 51.5758 119.876 50.9992 119.256 50.5767C118.635 50.1542 117.915 49.9003 117.167 49.84C116.057 49.75 114.617 49.66 112.997 49.61C111.817 49.61 110.547 49.55 109.227 49.61C108.497 49.61 107.757 49.61 107.007 49.69C100.929 50.2038 94.8853 51.0686 88.9069 52.28C87.7769 52.5 86.6269 52.75 85.5269 53.01C84.4269 53.27 83.5269 53.52 82.5269 53.78C81.3369 54.11 80.2069 54.44 79.2169 54.78C78.6715 54.9536 78.1657 55.2334 77.7289 55.6033C77.292 55.9732 76.9327 56.4259 76.6715 56.9352C76.4103 57.4446 76.2525 58.0006 76.2071 58.5712C76.1617 59.1418 76.2296 59.7157 76.4069 60.26Z" fill="white"/>
<path d="M109.537 49.59H109.227C108.497 49.59 107.757 49.59 107.007 49.66C100.929 50.1887 94.8856 51.0634 88.9069 52.28C88.0369 52.45 87.1669 52.64 86.3069 52.84L87.7169 53.84C91.8769 56.93 96.7169 59.72 103.457 59.25L104.327 59.18C107.777 58.8 109.917 57.52 110.697 55.35C110.97 54.3663 111.008 53.332 110.806 52.3312C110.605 51.3303 110.17 50.3912 109.537 49.59V49.59Z" fill="#FFB86C"/>
<path d="M87.787 31.68C89.787 37.33 92.457 47.81 88.947 52.28C92.567 54.96 97.217 57.99 104.157 57.23C111.097 56.47 109.157 51.9 107.007 49.66C100.307 49.05 99.777 44.22 100.247 39.54L87.787 31.68Z" fill="#B55B52"/>
<path opacity="0.2" d="M92.9069 34.89L100.287 39.53C100.158 40.6217 100.128 41.7228 100.197 42.82C97.6669 42.82 93.8669 40.5999 93.1969 38.0399C92.915 37.0153 92.8168 35.9488 92.9069 34.89Z" fill="black"/>
<path d="M100.577 23.11L97.6269 23.5099C93.8469 23.4199 86.8769 15.81 89.3769 9.22996C97.8269 7.76996 106.677 11.94 100.577 23.11Z" fill="#263238"/>
<path d="M82.1469 27.23C86.2769 34.03 88.3569 38.23 93.8069 39.97C102.017 42.58 109.007 34.79 106.987 26.88C105.167 19.77 98.7069 9.87996 90.3469 10.66C88.5018 10.8321 86.7315 11.4734 85.2043 12.523C83.6771 13.5725 82.444 14.9954 81.6221 16.6563C80.8002 18.3171 80.4169 20.1606 80.5088 22.0114C80.6006 23.8622 81.1645 25.6587 82.1469 27.23Z" fill="#B55B52"/>
<path d="M77.347 17.22L80.347 17.29C84.057 17.99 89.727 26.61 86.197 32.71C77.737 34.16 67.407 26.28 77.347 17.22Z" fill="#263238"/>
<path d="M82.4869 20.07C90.1469 18.45 97.5869 9.64998 97.2069 4.19998C96.8069 -1.56002 88.7169 1.47998 87.2069 3.29998C87.4469 0.119982 85.2069 0.869978 83.6769 2.81998C82.1469 4.76998 80.2369 11.82 74.4669 16.92C70.6069 20.33 73.7169 21.93 82.4869 20.07Z" fill="#263238"/>
<path d="M75.5168 20C75.5168 20 72.3269 21.28 71.5769 20.25C70.9869 22.46 73.2968 22.19 75.5168 20Z" fill="#263238"/>
<path d="M83.047 36.65C83.9065 37.1486 84.856 37.4725 85.8411 37.6029C86.8262 37.7334 87.8273 37.6678 88.787 37.41C91.347 36.71 91.257 34.09 89.407 32.41C87.747 30.87 84.407 29.41 82.407 31.01C80.407 32.61 80.907 35.41 83.047 36.65Z" fill="#B55B52"/>
<path d="M129.317 206C124.227 188.9 102.197 123.29 102.197 123.29L130.257 120.29C130.257 120.29 146.257 178.89 150.257 203.05C154.487 228.17 165.867 283.35 165.867 283.35L152.147 287.13C152.147 287.13 134.417 223.08 129.317 206Z" fill="url(#paint2_linear)"/>
<path opacity="0.2" d="M112.657 139.51C119.587 150.29 123.157 173.97 123.397 187.26C118.847 173.26 112.937 155.45 108.527 142.19C109.837 141.198 111.217 140.303 112.657 139.51V139.51Z" fill="black"/>
<path d="M115.117 121.88C115.117 121.88 117.407 187.79 116.487 211.29C115.487 237.03 110.807 292.19 110.807 292.19H96.1069C96.1069 292.19 97.4769 237.24 96.2869 212.19C94.9269 183.62 87.5769 124.88 87.5769 124.88L115.117 121.88Z" fill="url(#paint3_linear)"/>
<path d="M112.017 292.5H94.7068V287.33L112.897 286.5L112.017 292.5Z" fill="#FFB86C"/>
<path opacity="0.5" d="M112.017 292.5H94.7068V287.33L112.897 286.5L112.017 292.5Z" fill="white"/>
<path d="M167.457 284.95L151.687 288.64L150.497 283.54L166.517 278.93L167.457 284.95Z" fill="#FFB86C"/>
<path opacity="0.5" d="M167.457 284.95L151.687 288.64L150.497 283.54L166.517 278.93L167.457 284.95Z" fill="white"/>
<path d="M93.8469 23.57C94.1469 24.15 94.6969 24.45 95.0769 24.25C95.4569 24.05 95.5069 23.43 95.2069 22.86C94.9069 22.29 94.3569 21.98 93.9769 22.18C93.5969 22.38 93.5469 23 93.8469 23.57Z" fill="#263238"/>
<path d="M100.327 20.16C100.627 20.74 101.177 21.04 101.547 20.84C101.917 20.64 101.987 20.02 101.677 19.45C101.367 18.88 100.827 18.57 100.457 18.77C100.087 18.97 100.027 19.59 100.327 20.16Z" fill="#263238"/>
<path d="M98.417 21.53C100.023 22.9228 101.813 24.0871 103.737 24.99C103.492 25.4754 103.144 25.9014 102.718 26.2382C102.291 26.575 101.796 26.8146 101.267 26.94L98.417 21.53Z" fill="#79433E"/>
<path d="M99.657 29.75C98.9785 30.0078 98.2548 30.1256 97.5296 30.0964C96.8043 30.0672 96.0925 29.8915 95.437 29.58C95.4146 29.5682 95.3949 29.5521 95.3788 29.5326C95.3627 29.5131 95.3505 29.4907 95.3431 29.4666C95.3357 29.4424 95.3331 29.417 95.3355 29.3919C95.3378 29.3667 95.3452 29.3423 95.357 29.32C95.3688 29.2977 95.3849 29.2779 95.4043 29.2618C95.4238 29.2457 95.4463 29.2336 95.4704 29.2261C95.4945 29.2187 95.5199 29.2161 95.5451 29.2185C95.5702 29.2209 95.5946 29.2282 95.617 29.24C96.3497 29.5769 97.1513 29.7371 97.9572 29.7076C98.7631 29.678 99.5509 29.4597 100.257 29.07C100.301 29.0486 100.351 29.045 100.398 29.0599C100.445 29.0748 100.484 29.107 100.507 29.15C100.521 29.1711 100.529 29.1949 100.533 29.2198C100.536 29.2447 100.534 29.27 100.526 29.2939C100.518 29.3178 100.505 29.3397 100.488 29.358C100.471 29.3764 100.45 29.3907 100.427 29.4C100.179 29.5353 99.9218 29.6523 99.657 29.75Z" fill="#263238"/>
<path d="M89.3369 20.85C89.2711 20.8653 89.2027 20.8653 89.1369 20.85C89.0386 20.8305 88.9516 20.774 88.8938 20.692C88.8361 20.6101 88.8122 20.5091 88.8269 20.41C88.9105 19.813 89.1356 19.2446 89.4835 18.7523C89.8314 18.26 90.292 17.858 90.8269 17.58C90.8729 17.5602 90.9223 17.5496 90.9723 17.549C91.0223 17.5483 91.072 17.5575 91.1185 17.5761C91.1649 17.5947 91.2072 17.6223 91.243 17.6573C91.2788 17.6923 91.3073 17.734 91.3269 17.78C91.3649 17.8718 91.3664 17.9748 91.3311 18.0677C91.2958 18.1606 91.2263 18.2366 91.1369 18.28C90.7139 18.5041 90.3506 18.8262 90.0775 19.2194C89.8044 19.6125 89.6293 20.0653 89.5669 20.54C89.562 20.6082 89.5377 20.6735 89.497 20.7284C89.4562 20.7833 89.4007 20.8255 89.3369 20.85V20.85Z" fill="#263238"/>
<path d="M98.1969 16.14C98.2441 16.0989 98.3012 16.0708 98.3626 16.0586C98.424 16.0463 98.4875 16.0502 98.5469 16.07C99.0018 16.2162 99.485 16.2517 99.9564 16.1734C100.428 16.0951 100.874 15.9054 101.257 15.62C101.33 15.5503 101.426 15.5114 101.527 15.5114C101.628 15.5114 101.724 15.5503 101.797 15.62C101.866 15.6909 101.905 15.786 101.905 15.885C101.905 15.984 101.866 16.0791 101.797 16.15C101.316 16.516 100.755 16.7615 100.16 16.8659C99.5648 16.9703 98.9534 16.9306 98.3769 16.75C98.2801 16.7221 98.1984 16.6569 98.1496 16.5688C98.1009 16.4807 98.0891 16.3768 98.1169 16.28C98.1323 16.2277 98.1597 16.1798 98.1969 16.14V16.14Z" fill="#263238"/>
<path d="M110.627 303.52C109.919 303.5 109.214 303.403 108.527 303.23C108.49 303.22 108.457 303.2 108.432 303.171C108.408 303.143 108.392 303.108 108.387 303.07C108.379 303.034 108.383 302.996 108.397 302.962C108.411 302.928 108.436 302.9 108.467 302.88C108.767 302.7 111.357 301.11 112.237 301.56C112.335 301.612 112.418 301.69 112.476 301.785C112.534 301.88 112.566 301.989 112.567 302.1C112.586 302.286 112.561 302.473 112.493 302.647C112.426 302.821 112.317 302.977 112.177 303.1C111.721 303.407 111.176 303.555 110.627 303.52ZM109.077 302.96C110.437 303.23 111.487 303.18 111.927 302.81C112.024 302.727 112.098 302.622 112.144 302.503C112.189 302.384 112.204 302.256 112.187 302.13C112.19 302.084 112.18 302.039 112.159 301.998C112.138 301.958 112.106 301.924 112.067 301.9C111.607 301.66 110.127 302.35 109.077 303V302.96Z" fill="#FFB86C"/>
<path d="M108.567 303.23C108.534 303.239 108.5 303.239 108.467 303.23C108.439 303.211 108.416 303.186 108.4 303.156C108.384 303.127 108.376 303.094 108.377 303.06C108.377 302.96 108.577 300.64 109.517 299.88C109.626 299.783 109.755 299.712 109.895 299.67C110.035 299.629 110.183 299.618 110.327 299.64V299.64C110.468 299.64 110.605 299.688 110.715 299.777C110.824 299.867 110.899 299.991 110.927 300.13C111.097 301.03 109.497 302.79 108.657 303.24L108.567 303.23ZM110.187 300C110.027 299.999 109.873 300.06 109.757 300.17C109.174 300.884 108.825 301.76 108.757 302.68C109.587 302.05 110.607 300.68 110.507 300.2C110.507 300.15 110.507 300.03 110.227 300H110.137H110.187Z" fill="#FFB86C"/>
<path d="M166.617 296.42C166.582 296.416 166.549 296.402 166.521 296.381C166.493 296.36 166.471 296.332 166.457 296.3C166.444 296.263 166.443 296.223 166.454 296.185C166.464 296.148 166.486 296.115 166.517 296.09C166.827 295.82 169.597 293.49 170.667 293.8C170.768 293.827 170.86 293.879 170.934 293.953C171.007 294.027 171.06 294.119 171.087 294.22V294.22C171.151 294.384 171.173 294.562 171.15 294.737C171.127 294.911 171.061 295.078 170.957 295.22C170.277 296.22 167.957 296.4 166.647 296.44L166.617 296.42ZM170.487 294.15C169.857 294.09 168.297 295.15 167.197 296.01C168.997 295.9 170.257 295.52 170.647 295.01C170.712 294.918 170.754 294.812 170.768 294.7C170.782 294.588 170.768 294.475 170.727 294.37C170.719 294.329 170.7 294.292 170.671 294.262C170.643 294.232 170.607 294.21 170.567 294.2L170.487 294.15Z" fill="#FFB86C"/>
<path d="M166.617 296.42C166.587 296.406 166.56 296.385 166.54 296.359C166.519 296.333 166.504 296.302 166.497 296.27C166.497 296.18 166.207 294.02 167.007 292.97C167.126 292.813 167.276 292.683 167.448 292.588C167.621 292.494 167.811 292.436 168.007 292.42C168.527 292.35 168.727 292.57 168.817 292.77C169.167 293.62 167.687 295.77 166.817 296.39C166.79 296.414 166.757 296.43 166.722 296.436C166.686 296.441 166.649 296.436 166.617 296.42V296.42ZM168.157 292.78H167.957C167.818 292.796 167.684 292.84 167.563 292.911C167.443 292.981 167.338 293.077 167.257 293.19C166.834 294.008 166.674 294.937 166.797 295.85C167.617 295.04 168.577 293.42 168.367 292.91C168.357 292.87 168.327 292.79 168.157 292.78V292.78Z" fill="#FFB86C"/>
<path d="M74.1369 67.07C74.9269 68.57 75.6769 69.83 76.4969 71.16C77.3169 72.49 78.0969 73.77 78.9669 75.03C80.6669 77.57 82.4769 80.03 84.3569 82.46C86.2369 84.89 88.2169 87.22 90.3569 89.46L91.1669 90.35C91.7424 90.9969 92.3976 91.5681 93.1169 92.05C93.6429 92.388 94.2068 92.6632 94.7969 92.87C95.532 93.1326 96.3064 93.2679 97.0869 93.27C98.5509 93.2733 99.9812 92.8303 101.187 92C101.93 91.4897 102.588 90.8654 103.137 90.15C103.529 89.6561 103.88 89.131 104.187 88.58C104.666 87.7083 105.081 86.8025 105.427 85.87C106.506 82.7996 107.299 79.6362 107.797 76.42C108.327 73.42 108.697 70.37 108.987 67.36C109.577 61.36 109.857 55.41 109.857 49.36L103.857 48.84C102.777 54.56 101.637 60.34 100.397 65.98C99.7669 68.81 99.1069 71.61 98.3969 74.33C97.7366 76.8995 96.8773 79.4138 95.8269 81.85C95.6268 82.2895 95.3892 82.7111 95.1169 83.11C95.0169 83.25 94.9269 83.35 94.8969 83.35C94.8669 83.35 94.8969 83.26 95.2469 83.01C95.8417 82.6211 96.5363 82.4127 97.2469 82.41C97.9161 82.4049 98.5736 82.5848 99.1469 82.93C99.4369 83.11 99.4769 83.18 99.4769 83.14L98.8669 82.34C97.1869 80.07 95.5169 77.77 93.9369 75.41C92.3569 73.05 90.7769 70.69 89.2469 68.3L86.9769 64.7L84.8269 61.16L74.1369 67.07Z" fill="#B65B52"/>
<path d="M140.907 99.68C139.767 100.023 138.587 100.214 137.397 100.25C135.611 100.309 133.823 100.202 132.057 99.93C130.407 99.69 128.837 99.38 127.287 99.04C121.254 97.6238 115.347 95.7141 109.627 93.33L110.927 87.57C113.827 88.01 117.177 88.47 120.087 88.86C122.997 89.25 125.897 89.65 128.737 89.86C130.157 89.99 131.557 90.09 132.907 90.11H133.377" fill="#B65B52"/>
<path d="M112.627 87.82L106.197 86.46L104.807 96C104.807 96 111.947 97.0999 114.127 91.6799L112.627 87.82Z" fill="#B55B52"/>
<path d="M98.9469 89.42L100.177 95.27L104.807 95.9799L106.197 86.46L98.9469 89.42Z" fill="#B55B52"/>
<path d="M72.797 60.79C69.337 67.64 79.4869 83.79 79.4869 83.79L96.6169 76.79C94.6767 71.7308 92.4361 66.792 89.907 62C84.977 52.43 76.997 52.5 72.797 60.79Z" fill="url(#paint4_linear)"/>
<path d="M103.027 50.8L102.427 42.67L111.907 44.38C111.907 44.38 111.557 51.84 107.627 52.43L103.027 50.8Z" fill="#B55B52"/>
<path d="M105.197 35.03L113.257 37.98L111.897 44.38L102.427 42.67L105.197 35.03Z" fill="#B55B52"/>
<defs>
<linearGradient id="paint0_linear" x1="170.953" y1="18.4085" x2="170.953" y2="249.137" gradientUnits="userSpaceOnUse">
<stop stop-color="white" stop-opacity="0.25"/>
<stop offset="1" stop-color="white" stop-opacity="0"/>
</linearGradient>
<linearGradient id="paint1_linear" x1="122.218" y1="49.9238" x2="122.218" y2="78.9299" gradientUnits="userSpaceOnUse">
<stop stop-color="#FFB86C"/>
<stop offset="1" stop-color="#FF5555"/>
</linearGradient>
<linearGradient id="paint2_linear" x1="134.032" y1="120.29" x2="134.032" y2="287.13" gradientUnits="userSpaceOnUse">
<stop stop-color="#FFB86C"/>
<stop offset="1" stop-color="#FF5555"/>
</linearGradient>
<linearGradient id="paint3_linear" x1="102.141" y1="121.88" x2="102.141" y2="292.19" gradientUnits="userSpaceOnUse">
<stop stop-color="#FFB86C"/>
<stop offset="1" stop-color="#FF5555"/>
</linearGradient>
<linearGradient id="paint4_linear" x1="84.3474" y1="54.6907" x2="84.3474" y2="83.79" gradientUnits="userSpaceOnUse">
<stop stop-color="#FFB86C"/>
<stop offset="1" stop-color="#FF5555"/>
</linearGradient>
</defs>
</svg>
