<svg width="201" height="48" viewBox="0 0 201 48" fill="none" xmlns="http://www.w3.org/2000/svg">
<path d="M63.912 34H51.78C51.324 34 50.988 33.904 50.772 33.712C50.58 33.496 50.484 33.16 50.484 32.704V9.376C50.484 8.92 50.58 8.596 50.772 8.404C50.988 8.188 51.324 8.08 51.78 8.08H63.912C66.912 8.08 69.132 8.68 70.572 9.88C72.036 11.08 72.768 12.928 72.768 15.424V26.656C72.768 29.152 72.036 31 70.572 32.2C69.132 33.4 66.912 34 63.912 34ZM58.656 14.956V27.196H62.94C63.516 27.196 63.936 27.052 64.2 26.764C64.488 26.476 64.632 26.032 64.632 25.432V16.684C64.632 16.084 64.488 15.652 64.2 15.388C63.936 15.1 63.516 14.956 62.94 14.956H58.656ZM99.3034 27.196C99.3034 28.3 99.1354 29.308 98.7994 30.22C98.4874 31.108 97.9114 31.876 97.0714 32.524C96.2554 33.148 95.1154 33.64 93.6514 34C92.2114 34.36 90.3754 34.54 88.1434 34.54C85.9114 34.54 84.0634 34.36 82.5994 34C81.1354 33.64 79.9834 33.148 79.1434 32.524C78.3274 31.876 77.7514 31.108 77.4154 30.22C77.1034 29.308 76.9474 28.3 76.9474 27.196V14.92C76.9474 13.816 77.1034 12.82 77.4154 11.932C77.7514 11.02 78.3274 10.24 79.1434 9.592C79.9834 8.944 81.1354 8.44 82.5994 8.08C84.0634 7.72 85.9114 7.54 88.1434 7.54C90.3754 7.54 92.2114 7.72 93.6514 8.08C95.1154 8.44 96.2554 8.944 97.0714 9.592C97.9114 10.24 98.4874 11.02 98.7994 11.932C99.1354 12.82 99.3034 13.816 99.3034 14.92V27.196ZM85.1194 25.9C85.1194 26.38 85.2994 26.788 85.6594 27.124C86.0194 27.436 86.8474 27.592 88.1434 27.592C89.4394 27.592 90.2674 27.436 90.6274 27.124C90.9874 26.788 91.1674 26.38 91.1674 25.9V16.216C91.1674 15.76 90.9874 15.376 90.6274 15.064C90.2674 14.728 89.4394 14.56 88.1434 14.56C86.8474 14.56 86.0194 14.728 85.6594 15.064C85.2994 15.376 85.1194 15.76 85.1194 16.216V25.9ZM125.954 27.196C125.954 28.3 125.786 29.308 125.45 30.22C125.138 31.108 124.562 31.876 123.722 32.524C122.906 33.148 121.778 33.64 120.338 34C118.898 34.36 117.062 34.54 114.83 34.54C112.598 34.54 110.762 34.36 109.322 34C107.882 33.64 106.742 33.148 105.902 32.524C105.086 31.876 104.51 31.108 104.174 30.22C103.862 29.308 103.706 28.3 103.706 27.196V9.376C103.706 8.92 103.802 8.596 103.994 8.404C104.21 8.188 104.546 8.08 105.002 8.08H110.654C111.11 8.08 111.434 8.188 111.626 8.404C111.842 8.596 111.95 8.92 111.95 9.376V25.792C111.95 26.272 112.13 26.68 112.49 27.016C112.85 27.328 113.654 27.484 114.902 27.484C116.174 27.484 116.99 27.328 117.35 27.016C117.71 26.68 117.89 26.272 117.89 25.792V9.376C117.89 8.92 117.986 8.596 118.178 8.404C118.394 8.188 118.73 8.08 119.186 8.08H124.658C125.114 8.08 125.438 8.188 125.63 8.404C125.846 8.596 125.954 8.92 125.954 9.376V27.196ZM145.866 34H132.042C131.586 34 131.25 33.904 131.034 33.712C130.842 33.496 130.746 33.16 130.746 32.704V9.376C130.746 8.92 130.842 8.596 131.034 8.404C131.25 8.188 131.586 8.08 132.042 8.08H143.526C145.878 8.08 147.618 8.536 148.746 9.448C149.874 10.336 150.438 11.716 150.438 13.588V15.316C150.438 16.324 150.258 17.152 149.898 17.8C149.562 18.424 149.034 18.892 148.314 19.204C149.85 19.348 150.99 19.876 151.734 20.788C152.478 21.7 152.85 23.032 152.85 24.784V28.096C152.85 30.112 152.274 31.6 151.122 32.56C149.994 33.52 148.242 34 145.866 34ZM138.846 14.2V18.088H141.906C142.362 18.088 142.698 17.968 142.914 17.728C143.154 17.488 143.274 17.128 143.274 16.648V15.64C143.274 15.16 143.154 14.8 142.914 14.56C142.698 14.32 142.362 14.2 141.906 14.2H138.846ZM138.846 23.632V27.88H143.526C143.982 27.88 144.318 27.76 144.534 27.52C144.774 27.28 144.894 26.92 144.894 26.44V25.036C144.894 24.556 144.774 24.208 144.534 23.992C144.318 23.752 143.982 23.632 143.526 23.632H138.846ZM168.158 34H162.326C161.87 34 161.534 33.904 161.318 33.712C161.126 33.496 161.03 33.16 161.03 32.704V15.028H155.738C155.282 15.028 154.946 14.932 154.73 14.74C154.538 14.524 154.442 14.188 154.442 13.732V9.376C154.442 8.92 154.538 8.596 154.73 8.404C154.946 8.188 155.282 8.08 155.738 8.08H174.746C175.202 8.08 175.526 8.188 175.718 8.404C175.934 8.596 176.042 8.92 176.042 9.376V13.732C176.042 14.188 175.934 14.524 175.718 14.74C175.526 14.932 175.202 15.028 174.746 15.028H169.454V32.704C169.454 33.16 169.346 33.496 169.13 33.712C168.938 33.904 168.614 34 168.158 34ZM191.567 34H180.191C179.735 34 179.399 33.904 179.183 33.712C178.991 33.496 178.895 33.16 178.895 32.704V28.492C178.895 28.036 178.991 27.712 179.183 27.52C179.399 27.304 179.735 27.196 180.191 27.196H189.875C190.187 27.196 190.415 27.1 190.559 26.908C190.727 26.692 190.811 26.44 190.811 26.152C190.811 25.744 190.727 25.444 190.559 25.252C190.415 25.06 190.187 24.952 189.875 24.928L184.475 24.172C182.795 23.932 181.439 23.38 180.407 22.516C179.399 21.652 178.895 20.212 178.895 18.196V14.416C178.895 12.376 179.555 10.816 180.875 9.736C182.195 8.632 184.019 8.08 186.347 8.08H196.427C196.883 8.08 197.207 8.188 197.399 8.404C197.615 8.596 197.723 8.92 197.723 9.376V13.66C197.723 14.116 197.615 14.452 197.399 14.668C197.207 14.86 196.883 14.956 196.427 14.956H188.039C187.727 14.956 187.487 15.064 187.319 15.28C187.151 15.472 187.067 15.724 187.067 16.036C187.067 16.348 187.151 16.612 187.319 16.828C187.487 17.044 187.727 17.164 188.039 17.188L193.403 17.908C195.083 18.148 196.439 18.7 197.471 19.564C198.503 20.428 199.019 21.868 199.019 23.884V27.664C199.019 29.704 198.347 31.276 197.003 32.38C195.683 33.46 193.871 34 191.567 34Z" fill="white"/>
<path fill-rule="evenodd" clip-rule="evenodd" d="M0 33.5888V8.5736C0 6.59996 1.61529 5 3.60784 5H42.3922C44.3847 5 46 6.59996 46 8.5736V33.5888C46 35.5625 44.3847 37.1624 42.3922 37.1624H36.0784L38.1885 46.9158C38.3729 47.7683 37.3415 48.3509 36.6948 47.7595L27.0588 38.9492H3.60784C1.61529 38.9492 0 37.3493 0 35.3756V33.5888ZM8.52 30H12.12C12.424 30 12.64 29.936 12.768 29.808C12.912 29.664 12.984 29.44 12.984 29.136V21.216L17.088 26.184V29.136C17.088 29.44 17.152 29.664 17.28 29.808C17.424 29.936 17.648 30 17.952 30H21.552C21.856 30 22.072 29.936 22.2 29.808C22.344 29.664 22.416 29.44 22.416 29.136V13.584C22.416 13.28 22.344 13.064 22.2 12.936C22.072 12.792 21.856 12.72 21.552 12.72H17.952C17.648 12.72 17.424 12.792 17.28 12.936C17.152 13.064 17.088 13.28 17.088 13.584V18.696L12.432 13.368C12.224 13.128 12.008 12.96 11.784 12.864C11.576 12.768 11.32 12.72 11.016 12.72H8.52C8.216 12.72 7.992 12.792 7.848 12.936C7.72 13.064 7.656 13.28 7.656 13.584V29.136C7.656 29.44 7.72 29.664 7.848 29.808C7.992 29.936 8.216 30 8.52 30ZM40.0303 27.48C40.2543 26.872 40.3663 26.2 40.3663 25.464V17.28C40.3663 16.544 40.2543 15.88 40.0303 15.288C39.8223 14.68 39.4383 14.16 38.8783 13.728C38.3343 13.296 37.5743 12.96 36.5983 12.72C35.6383 12.48 34.4143 12.36 32.9263 12.36C31.4383 12.36 30.2063 12.48 29.2303 12.72C28.2543 12.96 27.4863 13.296 26.9263 13.728C26.3823 14.16 25.9983 14.68 25.7743 15.288C25.5663 15.88 25.4623 16.544 25.4623 17.28V25.464C25.4623 26.2 25.5663 26.872 25.7743 27.48C25.9983 28.072 26.3823 28.584 26.9263 29.016C27.4863 29.432 28.2543 29.76 29.2303 30C30.2063 30.24 31.4383 30.36 32.9263 30.36C34.4143 30.36 35.6383 30.24 36.5983 30C37.5743 29.76 38.3343 29.432 38.8783 29.016C39.4383 28.584 39.8223 28.072 40.0303 27.48ZM31.2703 25.416C31.0303 25.192 30.9103 24.92 30.9103 24.6V18.144C30.9103 17.84 31.0303 17.584 31.2703 17.376C31.5103 17.152 32.0623 17.04 32.9263 17.04C33.7903 17.04 34.3423 17.152 34.5823 17.376C34.8223 17.584 34.9423 17.84 34.9423 18.144V24.6C34.9423 24.92 34.8223 25.192 34.5823 25.416C34.3423 25.624 33.7903 25.728 32.9263 25.728C32.0623 25.728 31.5103 25.624 31.2703 25.416Z" fill="url(#paint0_linear)"/>
<defs>
<linearGradient id="paint0_linear" x1="3" y1="5" x2="39.5" y2="48" gradientUnits="userSpaceOnUse">
<stop stop-color="#FFB86C"/>
<stop offset="1" stop-color="#FF5555"/>
</linearGradient>
</defs>
</svg>
